<svg width="38" height="38" viewBox="0 0 38 38" fill="none" xmlns="http://www.w3.org/2000/svg">
<rect x="0.5" y="0.500488" width="37" height="37" rx="18.5" stroke="#212121"/>
<g clip-path="url(#clip0_496_95)">
<path d="M12.0729 19.6345C12.0731 19.6347 12.0732 19.6349 12.0734 19.635L15.0638 22.6109C15.2878 22.8339 15.6501 22.833 15.8731 22.609C16.0961 22.385 16.0952 22.0226 15.8712 21.7997L13.8635 19.8017L25.9834 19.8017C26.2994 19.8017 26.5557 19.5455 26.5557 19.2294C26.5557 18.9133 26.2994 18.6571 25.9834 18.6571L13.8635 18.6571L15.8712 16.6591C16.0952 16.4362 16.096 16.0738 15.8731 15.8498C15.6501 15.6257 15.2877 15.6249 15.0637 15.8479L12.0734 18.8238C12.0732 18.8239 12.0731 18.8241 12.0729 18.8243C11.8487 19.048 11.8495 19.4115 12.0729 19.6345Z" fill="#212121"/>
</g>
<defs>
<clipPath id="clip0_496_95">
<rect width="14.6506" height="14.6506" fill="white" transform="translate(26.5557 26.5547) rotate(180)"/>
</clipPath>
</defs>
</svg>
