<svg width="13" height="20" viewBox="0 0 13 20" fill="none" xmlns="http://www.w3.org/2000/svg">
<path d="M8.01733 19.9609H4.68482C4.12818 19.9609 3.67538 19.5258 3.67538 18.9908V11.7667H1.73112C1.17448 11.7667 0.72168 11.3313 0.72168 10.7965V7.70096C0.72168 7.16599 1.17448 6.7308 1.73112 6.7308H3.67538V5.18066C3.67538 3.64365 4.17756 2.33597 5.12746 1.39923C6.08165 0.458221 7.41513 -0.0390625 8.98374 -0.0390625L11.5253 -0.0350952C12.081 -0.0341797 12.533 0.401001 12.533 0.935059V3.8092C12.533 4.34418 12.0803 4.77936 11.5239 4.77936L9.81266 4.77997C9.2908 4.77997 9.15791 4.88052 9.12949 4.91135C9.08265 4.96246 9.02693 5.10696 9.02693 5.50598V6.73065H11.3953C11.5735 6.73065 11.7463 6.77292 11.8947 6.85257C12.215 7.02454 12.4141 7.3497 12.4141 7.70111L12.4128 10.7967C12.4128 11.3313 11.96 11.7665 11.4033 11.7665H9.02693V18.9908C9.02693 19.5258 8.57397 19.9609 8.01733 19.9609ZM4.89534 18.7885H7.8068V11.2418C7.8068 10.8846 8.10926 10.594 8.48077 10.594H11.1928L11.1939 7.90329H8.48061C8.1091 7.90329 7.8068 7.61276 7.8068 7.25555V5.50598C7.8068 5.04791 7.85523 4.52698 8.21499 4.13544C8.6497 3.66211 9.33478 3.60748 9.81235 3.60748L11.313 3.60687V1.13709L8.98279 1.13342C6.46189 1.13342 4.89534 2.68433 4.89534 5.18066V7.25555C4.89534 7.61261 4.59305 7.90329 4.22153 7.90329H1.94164V10.594H4.22153C4.59305 10.594 4.89534 10.8846 4.89534 11.2418V18.7885ZM11.5229 1.13739H11.5231H11.5229Z" fill="#BABABA"/>
</svg>
